VIDEO INFO:


Format                           : AVI
Format/Info                      : Audio Video Interleave
Format profile                   : OpenDML
Format settings                  : rec
File size                        : 1.32 GiB
Duration                         : 3h 1mn
Overall bit rate                 : 1 046 Kbps
Writing application              : AVI-Mux GUI 1.17.7, Aug  8 2006  20:59:17

Video
ID                               : 0
Format                           : MPEG-4 Visual
Format profile                   : Advanced Simple@L5
Format settings, BVOP            : 1
Format settings, QPel            : No
Format settings, GMC             : No warppoints
Format settings, Matrix          : Custom
Codec ID                         : XVID
Codec ID/Hint                    : XviD
Duration                         : 3h 1mn
Bit rate                         : 818 Kbps
Width                            : 512 pixels
Height                           : 384 pixels
Display aspect ratio             : 4:3
Frame rate                       : 23.976 fps
Color space                      : YUV
Chroma subsampling               : 4:2:0
Bit depth                        : 8 bits
Scan type                        : Progressive
Compression mode                 : Lossy
Bits/(Pixel*Frame)               : 0.174
Stream size                      : 1.04 GiB (78%)
Writing library                  : XviD 1.2.1 (UTC 2008-12-04)

Audio
ID                               : 1
Format                           : MPEG Audio
Format version                   : Version 1
Format profile                   : Layer 2
Codec ID                         : 50
Duration                         : 3h 1mn
Bit rate mode                    : Constant
Bit rate                         : 224 Kbps
Channel(s)                       : 2 channels
Sampling rate                    : 48.0 KHz
Compression mode                 : Lossy
Stream size                      : 290 MiB (21%)
Alignment                        : Aligned on interleaves
Interleave, duration             : 813 ms (19.48 video frames)
Interleave, preload duration     : 216 ms

Text
ID                               : 2
Stream size                      : 171 KiB (0%)

--------------------------------------

Verenigde Staten
Drama / Thriller
200 minuten

geregisseerd door David Greene
met Karl Malden, Eva Marie Saint en Gary Cole

Kapitein Jeff MacDonald is een bekend en ambitieus chirurg op een Amerikaanse mariniers-basis en gelukkig getrouwd met twee kinderen. Op een dag stormt de Militaire Politie zijn huis binnen na van Jeff een noodtelefoontje te hebben ontvangen. Ze vinden hem gewond en zijn vrouw en dochters vermoord in het huis. MacDonald claimt dat een groep drugsverslaafden zijn familie heeft aangevalen, maar de politie kan geen bewijs vinden.

-Ondertiteling (nederlands) in film met de mogelijkheid deze aan/uit te zetten.
